<svg xmlns="http://www.w3.org/2000/svg" viewBox="0 0 206 330"><defs><style>.cls-1{fill:none;}.cls-2{fill:#fff;}</style></defs><g id="NERO"><rect id="Rectangle_311" data-name="Rectangle 311" class="cls-1" width="206" height="330"/></g><g id="Livello_1" data-name="Livello 1"><path id="Path_272" data-name="Path 272" class="cls-2" d="M187.36,99.22a31.22,31.22,0,0,0,1.83-10.52c0-13.52-8.63-24.67-20.46-28v0c-6.76-2.21-11.3-6-13.3-14.69C151.86,19.24,129.72-.78,103,0l-.19,0-.19,0C75.82.84,53.72,22.18,50.19,49.1c-2,8.81-6.52,12.88-13.28,15.5v0A30.91,30.91,0,0,0,16.5,93.89a30.07,30.07,0,0,0,1.86,10.41l0,0c3.77,19.56,28.82,32.14,12.56,46.74v0A23.22,23.22,0,0,0,24,167.65a22.21,22.21,0,0,0,3.46,12h0C38.27,199.5,77,215.17,59.25,232.6a1.29,1.29,0,0,0-.17.16l0,0a19.83,19.83,0,0,0-5.19,13.38,18.7,18.7,0,0,0,3.92,11.55l-.09.09c10.16,12.28,37.41,27,29.11,45.54-.28.62-.53,1.23-.75,1.86a1.46,1.46,0,0,1-.07.19c-.19.57-.35,1.16-.49,1.74,0,.12-.07.26-.09.38-.12.53-.22,1.1-.29,1.63,0,.16,0,.3-.06.46a18.48,18.48,0,0,0-.12,2.1c0,10.42,8.12,18.59,18.13,18.29s18.12-9,18.11-19.38a18.19,18.19,0,0,0-.14-2.09c0-.16,0-.3,0-.46-.07-.54-.17-1.09-.29-1.62,0-.11-.06-.25-.1-.37-.13-.58-.29-1.12-.48-1.71a.64.64,0,0,1-.08-.19c-.22-.61-.47-1.22-.75-1.81h0c-8.34-18.07,18.88-34.4,29-47.29l-.1-.07a19.76,19.76,0,0,0,3.91-11.8,18.67,18.67,0,0,0-5.22-13h0l0,0a.57.57,0,0,0-.16-.15c-17.73-16.37,20.94-34.36,31.71-54.85h0a23.2,23.2,0,0,0,3.45-12.22,21.9,21.9,0,0,0-6.95-16.14v0c-16.29-13.63,8.74-27.71,12.48-47.5Z"/></g></svg>