<svg xmlns="http://www.w3.org/2000/svg" viewBox="0 0 206 330"><defs><style>.cls-1{fill:none;}.cls-2{fill:#fff;}</style></defs><g id="NERO"><rect id="Rectangle_311" data-name="Rectangle 311" class="cls-1" y="-0.2" width="206" height="330"/></g><g id="Livello_1" data-name="Livello 1"><path id="Path_268" data-name="Path 268" class="cls-2" d="M180.5,48.94c0-27-20.64-48.94-45.92-48.94H72.24C46.94,0,26.36,21.94,26.36,48.94v75.85H67.83V48.94a4.61,4.61,0,0,1,4.41-4.77h62.34A4.63,4.63,0,0,1,139,48.94v56.78c-1.37,15-17.89,25.19-44.41,39.84C65,161.84,28.36,182.18,27.73,225.61h0V226c0,.26,0,.48,0,.74h0V330H69.14V226.06c.46-15.76,17.17-26.17,44.51-41.27,28.37-15.65,63.26-35,66.65-74.81h.2v-3.44c0-1,.13-1.91.13-3h-.13Z"/><path id="Path_269" data-name="Path 269" class="cls-2" d="M180.56,226a67,67,0,0,0-12.08-38.06l-36.58,22h-.06c6.24,6.8,7.32,12.26,7.32,16.81V330h41.47V226Z"/></g></svg>